<svg xmlns="http://www.w3.org/2000/svg" viewBox="0 0 600 760">
  <g id="tx">
    <line x1="65" y1="374" x2="65" y2="410" stroke="#333" />
    <path d="M51.666666666666664 350 L78.33333333333333 350 L65 374 Z" stroke="#333" fill="none" />
  </g>
  <g id="rxSubarrays.1.elements.1.element">
    <line x1="204" y1="65" x2="240" y2="65" stroke="#333" />
    <path d="M180 51.666666666666664 L180 78.33333333333333 L204 65 Z" stroke="#333" fill="none" />
  </g>
  <g id="rxSubarrays.1.elements.1.phaseShifter">
    <circle cx="355" cy="65" r="15" stroke="#333" fill="none" />
    <path d="M344.5 75.5 L365.5 54.5 M359.2 54.5 L365.5 54.5 L365.5 60.8" stroke="#333" fill="none" />
  </g>
  <g id="rxSubarrays.1.elements.2.element">
    <line x1="204" y1="155" x2="240" y2="155" stroke="#333" />
    <path d="M180 141.66666666666666 L180 168.33333333333334 L204 155 Z" stroke="#333" fill="none" />
  </g>
  <g id="rxSubarrays.1.elements.2.phaseShifter">
    <circle cx="355" cy="155" r="15" stroke="#333" fill="none" />
    <path d="M344.5 165.5 L365.5 144.5 M359.2 144.5 L365.5 144.5 L365.5 150.8" stroke="#333" fill="none" />
  </g>
  <g id="rxSubarrays.1.elements.3.element">
    <line x1="204" y1="245" x2="240" y2="245" stroke="#333" />
    <path d="M180 231.66666666666666 L180 258.3333333333333 L204 245 Z" stroke="#333" fill="none" />
  </g>
  <g id="rxSubarrays.1.elements.3.phaseShifter">
    <circle cx="355" cy="245" r="15" stroke="#333" fill="none" />
    <path d="M344.5 255.5 L365.5 234.5 M359.2 234.5 L365.5 234.5 L365.5 240.8" stroke="#333" fill="none" />
  </g>
  <g id="rxSubarrays.1.elements.4.element">
    <line x1="204" y1="335" x2="240" y2="335" stroke="#333" />
    <path d="M180 321.6666666666667 L180 348.3333333333333 L204 335 Z" stroke="#333" fill="none" />
  </g>
  <g id="rxSubarrays.1.elements.4.phaseShifter">
    <circle cx="355" cy="335" r="15" stroke="#333" fill="none" />
    <path d="M344.5 345.5 L365.5 324.5 M359.2 324.5 L365.5 324.5 L365.5 330.8" stroke="#333" fill="none" />
  </g>
  <g id="rxSubarrays.1.combiner">
    <path d="M470 135 h80 v130 h-80 Z" stroke="#333" fill="none" />
    <text x="510" y="204" font-size="12" text-anchor="middle">2x4 Hybrid</text>
  </g>
  <g id="rxSubarrays.2.elements.1.element">
    <line x1="204" y1="425" x2="240" y2="425" stroke="#333" />
    <path d="M180 411.6666666666667 L180 438.3333333333333 L204 425 Z" stroke="#333" fill="none" />
  </g>
  <g id="rxSubarrays.2.elements.1.phaseShifter">
    <circle cx="355" cy="425" r="15" stroke="#333" fill="none" />
    <path d="M344.5 435.5 L365.5 414.5 M359.2 414.5 L365.5 414.5 L365.5 420.8" stroke="#333" fill="none" />
  </g>
  <g id="rxSubarrays.2.elements.2.element">
    <line x1="204" y1="515" x2="240" y2="515" stroke="#333" />
    <path d="M180 501.6666666666667 L180 528.3333333333334 L204 515 Z" stroke="#333" fill="none" />
  </g>
  <g id="rxSubarrays.2.elements.2.phaseShifter">
    <circle cx="355" cy="515" r="15" stroke="#333" fill="none" />
    <path d="M344.5 525.5 L365.5 504.5 M359.2 504.5 L365.5 504.5 L365.5 510.8" stroke="#333" fill="none" />
  </g>
  <g id="rxSubarrays.2.elements.3.element">
    <line x1="204" y1="605" x2="240" y2="605" stroke="#333" />
    <path d="M180 591.6666666666666 L180 618.3333333333334 L204 605 Z" stroke="#333" fill="none" />
  </g>
  <g id="rxSubarrays.2.elements.3.phaseShifter">
    <circle cx="355" cy="605" r="15" stroke="#333" fill="none" />
    <path d="M344.5 615.5 L365.5 594.5 M359.2 594.5 L365.5 594.5 L365.5 600.8" stroke="#333" fill="none" />
  </g>
  <g id="rxSubarrays.2.elements.4.element">
    <line x1="204" y1="695" x2="240" y2="695" stroke="#333" />
    <path d="M180 681.6666666666666 L180 708.3333333333334 L204 695 Z" stroke="#333" fill="none" />
  </g>
  <g id="rxSubarrays.2.elements.4.phaseShifter">
    <circle cx="355" cy="695" r="15" stroke="#333" fill="none" />
    <path d="M344.5 705.5 L365.5 684.5 M359.2 684.5 L365.5 684.5 L365.5 690.8" stroke="#333" fill="none" />
  </g>
  <g id="rxSubarrays.2.combiner">
    <path d="M470 495 h80 v130 h-80 Z" stroke="#333" fill="none" />
    <text x="510" y="564" font-size="12" text-anchor="middle">2x4 Hybrid</text>
  </g>
  <line x1="240" y1="65" x2="340" y2="65" stroke="#333" />
  <line x1="240" y1="155" x2="340" y2="155" stroke="#333" />
  <line x1="240" y1="245" x2="340" y2="245" stroke="#333" />
  <line x1="240" y1="335" x2="340" y2="335" stroke="#333" />
  <line x1="370" y1="65" x2="470" y2="161" stroke="#333" />
  <line x1="370" y1="155" x2="470" y2="187" stroke="#333" />
  <line x1="370" y1="245" x2="470" y2="213" stroke="#333" />
  <line x1="370" y1="335" x2="470" y2="239" stroke="#333" />
  <line x1="240" y1="425" x2="340" y2="425" stroke="#333" />
  <line x1="240" y1="515" x2="340" y2="515" stroke="#333" />
  <line x1="240" y1="605" x2="340" y2="605" stroke="#333" />
  <line x1="240" y1="695" x2="340" y2="695" stroke="#333" />
  <line x1="370" y1="425" x2="470" y2="521" stroke="#333" />
  <line x1="370" y1="515" x2="470" y2="547" stroke="#333" />
  <line x1="370" y1="605" x2="470" y2="573" stroke="#333" />
  <line x1="370" y1="695" x2="470" y2="599" stroke="#333" />
</svg>