<svg xmlns="http://www.w3.org/2000/svg" viewBox="0 0 1300 400">
  <g id="rxFrontEnd[0].element[0]">
    <line x1="74" y1="65" x2="110" y2="65" stroke="#333" />
    <path d="M50 51.666666666666664 L50 78.33333333333333 L74 65 Z" stroke="#333" fill="none" />
  </g>
  <g id="rxFrontEnd[0].element[1]">
    <circle cx="225" cy="65" r="15" stroke="#333" fill="none" />
    <path d="M214.5 75.5 L235.5 54.5 M229.2 54.5 L235.5 54.5 L235.5 60.8" stroke="#333" fill="none" />
  </g>
  <g id="rxFrontEnd[1].element[0]">
    <line x1="74" y1="155" x2="110" y2="155" stroke="#333" />
    <path d="M50 141.66666666666666 L50 168.33333333333334 L74 155 Z" stroke="#333" fill="none" />
  </g>
  <g id="rxFrontEnd[1].element[1]">
    <circle cx="225" cy="155" r="15" stroke="#333" fill="none" />
    <path d="M214.5 165.5 L235.5 144.5 M229.2 144.5 L235.5 144.5 L235.5 150.8" stroke="#333" fill="none" />
  </g>
  <g id="rxFrontEnd[2].element[0]">
    <line x1="74" y1="245" x2="110" y2="245" stroke="#333" />
    <path d="M50 231.66666666666666 L50 258.3333333333333 L74 245 Z" stroke="#333" fill="none" />
  </g>
  <g id="rxFrontEnd[2].element[1]">
    <circle cx="225" cy="245" r="15" stroke="#333" fill="none" />
    <path d="M214.5 255.5 L235.5 234.5 M229.2 234.5 L235.5 234.5 L235.5 240.8" stroke="#333" fill="none" />
  </g>
  <g id="rxFrontEnd[3].element[0]">
    <line x1="74" y1="335" x2="110" y2="335" stroke="#333" />
    <path d="M50 321.6666666666667 L50 348.3333333333333 L74 335 Z" stroke="#333" fill="none" />
  </g>
  <g id="rxFrontEnd[3].element[1]">
    <circle cx="225" cy="335" r="15" stroke="#333" fill="none" />
    <path d="M214.5 345.5 L235.5 324.5 M229.2 324.5 L235.5 324.5 L235.5 330.8" stroke="#333" fill="none" />
  </g>
  <g id="rxDivider">
    <path d="M340 135 h80 v130 h-80 Z" stroke="#333" fill="none" />
    <text x="380" y="204" font-size="12" text-anchor="middle">Power Divider</text>
  </g>
  <g id="rxBlock">
    <path d="M520 180 h80 v40 h-80 Z" stroke="#333" fill="none" />
    <text x="560" y="204" font-size="12" text-anchor="middle">Receiver</text>
  </g>
  <g id="txBlock">
    <path d="M700 180 h80 v40 h-80 Z" stroke="#333" fill="none" />
    <text x="740" y="204" font-size="12" text-anchor="middle">Transmitter</text>
  </g>
  <g id="txDivider">
    <path d="M880 135 h80 v130 h-80 Z" stroke="#333" fill="none" />
    <text x="920" y="204" font-size="12" text-anchor="middle">Power Divider</text>
  </g>
  <g id="txFrontEnd[0].element[0]">
    <circle cx="1075" cy="65" r="15" stroke="#333" fill="none" />
    <path d="M1064.5 75.5 L1085.5 54.5 M1079.2 54.5 L1085.5 54.5 L1085.5 60.8" stroke="#333" fill="none" />
  </g>
  <g id="txFrontEnd[0].element[1]">
    <line x1="1190" y1="65" x2="1226" y2="65" stroke="#333" />
    <path d="M1250 51.666666666666664 L1250 78.33333333333333 L1226 65 Z" stroke="#333" fill="none" />
  </g>
  <g id="txFrontEnd[1].element[0]">
    <circle cx="1075" cy="155" r="15" stroke="#333" fill="none" />
    <path d="M1064.5 165.5 L1085.5 144.5 M1079.2 144.5 L1085.5 144.5 L1085.5 150.8" stroke="#333" fill="none" />
  </g>
  <g id="txFrontEnd[1].element[1]">
    <line x1="1190" y1="155" x2="1226" y2="155" stroke="#333" />
    <path d="M1250 141.66666666666666 L1250 168.33333333333334 L1226 155 Z" stroke="#333" fill="none" />
  </g>
  <g id="txFrontEnd[2].element[0]">
    <circle cx="1075" cy="245" r="15" stroke="#333" fill="none" />
    <path d="M1064.5 255.5 L1085.5 234.5 M1079.2 234.5 L1085.5 234.5 L1085.5 240.8" stroke="#333" fill="none" />
  </g>
  <g id="txFrontEnd[2].element[1]">
    <line x1="1190" y1="245" x2="1226" y2="245" stroke="#333" />
    <path d="M1250 231.66666666666666 L1250 258.3333333333333 L1226 245 Z" stroke="#333" fill="none" />
  </g>
  <g id="txFrontEnd[3].element[0]">
    <circle cx="1075" cy="335" r="15" stroke="#333" fill="none" />
    <path d="M1064.5 345.5 L1085.5 324.5 M1079.2 324.5 L1085.5 324.5 L1085.5 330.8" stroke="#333" fill="none" />
  </g>
  <g id="txFrontEnd[3].element[1]">
    <line x1="1190" y1="335" x2="1226" y2="335" stroke="#333" />
    <path d="M1250 321.6666666666667 L1250 348.3333333333333 L1226 335 Z" stroke="#333" fill="none" />
  </g>
  <line x1="110" y1="65" x2="210" y2="65" stroke="#333" />
  <line x1="110" y1="155" x2="210" y2="155" stroke="#333" />
  <line x1="110" y1="245" x2="210" y2="245" stroke="#333" />
  <line x1="110" y1="335" x2="210" y2="335" stroke="#333" />
  <line x1="240" y1="65" x2="340" y2="161" stroke="#333" />
  <line x1="240" y1="155" x2="340" y2="187" stroke="#333" />
  <line x1="240" y1="245" x2="340" y2="213" stroke="#333" />
  <line x1="240" y1="335" x2="340" y2="239" stroke="#333" />
  <line x1="420" y1="200" x2="520" y2="200" stroke="#333" />
  <line x1="1090" y1="65" x2="1190" y2="65" stroke="#333" />
  <line x1="1090" y1="155" x2="1190" y2="155" stroke="#333" />
  <line x1="1090" y1="245" x2="1190" y2="245" stroke="#333" />
  <line x1="1090" y1="335" x2="1190" y2="335" stroke="#333" />
  <line x1="780" y1="200" x2="880" y2="200" stroke="#333" />
  <line x1="960" y1="161" x2="1060" y2="65" stroke="#333" />
  <line x1="960" y1="187" x2="1060" y2="155" stroke="#333" />
  <line x1="960" y1="213" x2="1060" y2="245" stroke="#333" />
  <line x1="960" y1="239" x2="1060" y2="335" stroke="#333" />
</svg>